:version 1.10
:name ASF
:units
  mass 1
  length 1
  angle deg
:documentation
  ASF file generated by Kaydara
:root
  axis xyz
  order  tx ty tz rx ry rz
  position 0 0 0
  orientation 0 0 0
:bonedata
  begin
    id 1
    name RightUpLegDummy
    direction -0.65628 -0.754516 0.00165102
    length 4.76918
    axis 0 0 0 xyz
  end
  begin
    id 2
    name RightUpLeg
    direction -0.145584 -0.923362 0.355256
    length 17.9961
    axis -24.7611 -13.1006 1.78531 xyz
    dof rx ry rz
  end
  begin
    id 3
    name RightLeg
    direction 0.263379 0.172355 -0.949171
    length 13.3386
    axis 89.6202 -21.1929 12.3855 xyz
    dof rx ry rz
  end
  begin
    id 4
    name RightFoot
    direction 0.224283 -0.968777 -0.105675
    length 5.86697
    axis 56.995 -39.6905 17.3365 xyz
    dof rx ry rz
  end
  begin
    id 5
    name RightToes
    direction -0.0806345 -0.9037 0.420506
    length 4.75197
    axis 146.825 -39.7828 17.6019 xyz
    dof rx ry rz
  end
  begin
    id 6
    name SpineDummy
    direction -3.39852e-014 1 9.33296e-014
    length 8.13779
    axis 0 0 0 xyz
  end
  begin
    id 7
    name Spine
    direction -0.156609 0.733703 0.661176
    length 7.14978
    axis 41.2365 5.68757 17.0844 xyz
    dof rx ry rz
  end
  begin
    id 8
    name Spine1
    direction 0 0 0
    length 0
    axis 42.8809 47.8308 -3.36039 xyz
    dof rx ry rz
  end
  begin
    id 9
    name HEadDummy
    direction 0.546431 0.701947 0.456819
    length 3.55512
    axis 42.8809 47.8308 -3.36039 xyz
  end
  begin
    id 10
    name HEad
    direction 0.23444 0.828559 0.508457
    length 7.35827
    axis 51.1864 49.2662 27.4903 xyz
    dof rx ry rz
  end
  begin
    id 11
    name LeftShoulder1Dummy
    direction 0.431183 0.475873 -0.766568
    length 2.49352
    axis 42.8809 47.8308 -3.36039 xyz
  end
  begin
    id 12
    name LeftShoulder1
    direction 0.268187 -0.383402 -0.883786
    length 4.48604
    axis -119.517 0.106469 35.1736 xyz
    dof rx ry rz
  end
  begin
    id 13
    name LeftArm
    direction 0.380567 -0.703221 -0.600541
    length 10.1142
    axis -5.41825 36.2925 7.8293 xyz
    dof rx ry rz
  end
  begin
    id 14
    name LeftForeArm
    direction 0.541071 -0.732356 -0.413396
    length 9.39839
    axis 4.65387 33.7604 7.81644 xyz
    dof rx ry rz
  end
  begin
    id 15
    name LeftHand
    direction 0.847511 -0.389379 -0.360707
    length 3.66142
    axis 7.65593 21.1436 -24.6758 xyz
    dof rx ry rz
  end
  begin
    id 16
    name RightShoulderDummy
    direction -0.692546 0.541855 0.476208
    length 2.49352
    axis 42.8809 47.8308 -3.36039 xyz
  end
  begin
    id 17
    name RightShoulder
    direction -0.870808 -0.316653 0.376065
    length 4.48602
    axis 141.571 51.133 -100.254 xyz
    dof rx ry rz
  end
  begin
    id 18
    name RightArm
    direction 0.366897 -0.87275 0.322015
    length 10.1142
    axis 92.3258 71.2036 138.917 xyz
    dof rx ry rz
  end
  begin
    id 19
    name RightForeArm
    direction 0.702487 -0.694568 0.155197
    length 9.39835
    axis 153.863 41.5092 -176.604 xyz
    dof rx ry rz
  end
  begin
    id 20
    name RightHand
    direction 0.79502 -0.601276 0.0800636
    length 3.66142
    axis 154.247 4.59222 142.9 xyz
    dof rx ry rz
  end
  begin
    id 21
    name LeftUpLegDummy
    direction 0.65628 -0.754516 0.00165102
    length 4.76919
    axis 0 0 0 xyz
  end
  begin
    id 22
    name LeftUpLeg
    direction -0.1277 -0.689368 0.713067
    length 17.9961
    axis -48.3385 -17.8675 0.791927 xyz
    dof rx ry rz
  end
  begin
    id 23
    name LeftLeg
    direction 0.109849 -0.991246 -0.0732378
    length 13.3386
    axis -2.05791 -7.30784 1.72042 xyz
    dof rx ry rz
  end
  begin
    id 24
    name LeftFoot
    direction 0.0448355 -0.272614 0.961078
    length 5.86697
    axis -18.7733 -7.89606 10.2113 xyz
    dof rx ry rz
  end
  begin
    id 25
    name LeftToes
    direction -0.18506 0.293668 0.937823
    length 4.75197
    axis 71.2267 -7.89606 10.2113 xyz
    dof rx ry rz
  end
:hierarchy
  begin
    root RightUpLegDummy SpineDummy LeftUpLegDummy
    RightUpLegDummy RightUpLeg
    RightUpLeg RightLeg
    RightLeg RightFoot
    RightFoot RightToes
    SpineDummy Spine
    Spine Spine1
    Spine1 HEadDummy LeftShoulder1Dummy RightShoulderDummy
    HEadDummy HEad
    LeftShoulder1Dummy LeftShoulder1
    LeftShoulder1 LeftArm
    LeftArm LeftForeArm
    LeftForeArm LeftHand
    RightShoulderDummy RightShoulder
    RightShoulder RightArm
    RightArm RightForeArm
    RightForeArm RightHand
    LeftUpLegDummy LeftUpLeg
    LeftUpLeg LeftLeg
    LeftLeg LeftFoot
    LeftFoot LeftToes
  end

:SAMPLES-PER-SECOND 30
:FULLY-SPECIFIED
:DEGREES
573
root  -26.0613 37.5027 -19.0863 151.69 57.186 163.565
RightUpLeg  16.6707 7.4798 -3.37766
RightLeg  -60.9773 -24.8693 12.4026
RightFoot  14.0735 6.05817 -16.9033
RightToes  -1.27222e-014 -6.36111e-015 6.36111e-015
Spine  -36.8253 -13.4382 -17.2538
Spine1  13.6083 -6.5599 31.2993
HEad  16.572 15.563 -5.48254
LeftShoulder1  6.36111e-015 -1.33558e-015 6.49777e-015
LeftArm  37.0355 -17.4114 -52.0163
LeftForeArm  -3.99841 -19.1463 -1.61315
LeftHand  -1.08432 0.259236 -14.1547
RightShoulder  -4.77083e-015 -6.36111e-015 -3.18055e-015
RightArm  41.4448 -36.2897 -2.25839
RightForeArm  -12.5658 -14.384 -1.76351
RightHand  1.08699 -1.11842 -6.32734
LeftUpLeg  34.012 26.1255 5.02912
LeftLeg  -11.2245 -12.2631 -0.640669
LeftFoot  -3.83756 5.23509 -19.8915
LeftToes  9.54166e-015 -1.91609e-011 -2.3878e-011
574
root  -26.4113 37.4094 -18.7918 150.489 57.5643 162.359
RightUpLeg  18.3703 6.79531 -4.44772
RightLeg  -60.1507 -26.8392 14.1324
RightFoot  13.6526 6.1927 -17.0745
RightToes  -1.27222e-014 -6.36111e-015 6.36111e-015
Spine  -36.8096 -12.4384 -16.7852
Spine1  13.1395 -5.97902 30.0992
HEad  17.4033 15.0362 -4.69413
LeftShoulder1  6.36111e-015 -1.33558e-015 6.49777e-015
LeftArm  37.0222 -18.2861 -52.0896
LeftForeArm  -4.47659 -19.7128 -1.10331
LeftHand  -1.04618 0.362204 -14.0092
RightShoulder  -4.77083e-015 -6.36111e-015 -3.18055e-015
RightArm  40.6048 -35.2829 1.26007
RightForeArm  -13.748 -15.4603 -2.74025
RightHand  1.06748 -1.20187 -6.05625
LeftUpLeg  33.2942 26.5498 5.01906
LeftLeg  -11.2213 -11.8572 -0.675305
LeftFoot  -3.56189 5.36682 -20.1934
LeftToes  9.54166e-015 -1.91609e-011 -2.3878e-011
575
root  -26.8112 37.2969 -18.4702 148.888 58.1569 160.702
RightUpLeg  19.8187 6.3155 -5.72788
RightLeg  -60.1078 -29.1363 16.4981
RightFoot  14.2085 7.16009 -18.8478
RightToes  -1.27222e-014 -6.36111e-015 6.36111e-015
Spine  -36.8671 -11.4554 -16.3088
Spine1  12.9259 -5.38897 28.8536
HEad  18.1852 14.8392 -4.02309
LeftShoulder1  6.36111e-015 -1.33558e-015 6.49777e-015
LeftArm  36.3071 -18.5675 -51.538
LeftForeArm  -4.52762 -20.6293 -0.87786
LeftHand  -1.05701 0.317147 -14.0003
RightShoulder  -4.77083e-015 -6.36111e-015 -3.18055e-015
RightArm  39.9276 -34.143 4.19263
RightForeArm  -14.3958 -15.9126 -3.63059
RightHand  0.984633 -0.948068 -5.8762
LeftUpLeg  32.3963 27.0812 4.92674
LeftLeg  -11.2213 -11.1479 -0.733907
LeftFoot  -3.11904 5.51377 -20.4288
LeftToes  9.54166e-015 -1.91609e-011 -2.3878e-011
576
root  -27.2748 37.1541 -18.1041 147.138 58.9073 158.825
RightUpLeg  20.9289 5.98377 -6.9805
RightLeg  -60.8975 -30.5459 18.4127
RightFoot  16.6342 8.48571 -21.3355
RightToes  -1.27222e-014 -6.36111e-015 6.36111e-015
Spine  -36.9093 -10.6124 -15.927
Spine1  12.8537 -4.88042 27.8015
HEad  18.87 14.8135 -3.64974
LeftShoulder1  6.36111e-015 -1.33558e-015 6.49777e-015
LeftArm  35.2238 -18.3384 -50.738
LeftForeArm  -4.49763 -21.4851 -0.758716
LeftHand  -1.06806 0.226623 -13.8495
RightShoulder  -4.77083e-015 -6.36111e-015 -3.18055e-015
RightArm  39.5206 -32.8774 6.53373
RightForeArm  -14.8836 -16.1493 -4.42648
RightHand  0.924946 -0.79599 -5.69307
LeftUpLeg  31.2151 27.6392 4.9259
LeftLeg  -11.0052 -10.3688 -0.805694
LeftFoot  -2.66817 5.61631 -20.4911
LeftToes  9.54166e-015 -1.91609e-011 -2.3878e-011
577
root  -27.7686 37.0556 -17.6848 145.825 59.7335 157.392
RightUpLeg  22.0878 5.33874 -8.12027
RightLeg  -63.1109 -29.9231 19.2385
RightFoot  18.4696 8.242 -21.0566
RightToes  -1.27222e-014 -6.36111e-015 6.36111e-015
Spine  -37.1141 -9.80164 -15.2579
Spine1  12.5558 -4.48684 27.0616
HEad  19.3727 14.8949 -3.44556
LeftShoulder1  6.36111e-015 -1.33558e-015 6.49777e-015
LeftArm  34.2933 -17.7821 -50.0002
LeftForeArm  -4.55753 -22.0312 -0.666782
LeftHand  -1.02624 0.271346 -13.4756
RightShoulder  -4.77083e-015 -6.36111e-015 -3.18055e-015
RightArm  39.2972 -31.7485 8.27651
RightForeArm  -15.3874 -16.2461 -5.23042
RightHand  0.907071 -0.873681 -5.43985
LeftUpLeg  30.2246 28.0131 5.36089
LeftLeg  -11.1848 -9.86096 -0.84329
LeftFoot  -1.99536 5.68932 -20.2981
LeftToes  9.54166e-015 -1.91609e-011 -2.3878e-011
578
root  -28.2652 37.0467 -17.2155 145.235 60.686 156.65
RightUpLeg  23.6734 4.22861 -9.09907
RightLeg  -66.919 -27.4493 19.0592
RightFoot  16.0245 5.67519 -16.5546
RightToes  -1.27222e-014 -6.36111e-015 6.36111e-015
Spine  -37.7989 -8.86896 -14.0612
Spine1  12.114 -4.1603 26.6339
HEad  19.507 15.3769 -3.35793
LeftShoulder1  6.36111e-015 -1.33558e-015 6.49777e-015
LeftArm  33.7589 -17.1249 -49.4726
LeftForeArm  -4.74388 -22.1627 -0.616263
LeftHand  -0.966004 0.385304 -13.1051
RightShoulder  -4.77083e-015 -6.36111e-015 -3.18055e-015
RightArm  39.0327 -30.9252 9.08317
RightForeArm  -15.6714 -15.8346 -5.92725
RightHand  0.886646 -0.790596 -5.42528
LeftUpLeg  29.6264 28.0623 6.26001
LeftLeg  -12.2377 -9.64425 -0.843079
LeftFoot  -0.870122 5.83827 -20.0819
LeftToes  9.54166e-015 -1.91609e-011 -2.3878e-011
579
root  -28.8071 37.0523 -16.6961 145.467 61.8724 156.449
RightUpLeg  25.239 3.24169 -9.21179
RightLeg  -71.2402 -24.2784 17.9505
RightFoot  9.76451 3.37011 -11.0963
RightToes  -1.27222e-014 -6.36111e-015 6.36111e-015
Spine  -38.9601 -7.79209 -12.604
Spine1  12.017 -3.87511 26.3236
HEad  19.165 16.0445 -3.57729
LeftShoulder1  6.36111e-015 -1.33558e-015 6.49777e-015
LeftArm  33.6957 -16.7122 -49.4965
LeftForeArm  -5.02094 -21.6922 -0.646549
LeftHand  -0.937594 0.41801 -12.8661
RightShoulder  -4.77083e-015 -6.36111e-015 -3.18055e-015
RightArm  38.7246 -30.3413 8.76057
RightForeArm  -15.7923 -15.1731 -6.28472
RightHand  0.868683 -0.438335 -5.86896
LeftUpLeg  28.6164 27.6699 7.25071
LeftLeg  -13.3528 -9.47492 -0.845856
LeftFoot  0.180542 5.97998 -19.8991
LeftToes  9.54166e-015 -1.91609e-011 -2.3878e-011
580
root  -29.4319 37.0514 -16.1315 147.202 63.2244 157.485
RightUpLeg  26.0515 2.79292 -7.35959
RightLeg  -75.0869 -21.938 17.1804
RightFoot  4.28336 3.33061 -9.3013
RightToes  -1.27222e-014 -6.36111e-015 6.36111e-015
Spine  -40.2456 -6.49828 -10.8038
Spine1  12.0274 -3.76581 26.105
HEad  18.5749 15.8326 -4.24698
LeftShoulder1  6.36111e-015 -1.33558e-015 6.49777e-015
LeftArm  34.0574 -16.6016 -50.3099
LeftForeArm  -5.16962 -20.5696 -0.795914
LeftHand  -0.933915 0.367797 -12.6585
RightShoulder  -4.77083e-015 -6.36111e-015 -3.18055e-015
RightArm  38.5637 -29.9252 7.77062
RightForeArm  -16.0875 -15.1108 -6.34573
RightHand  0.907568 -0.292875 -6.40271
LeftUpLeg  26.872 26.599 8.27854
LeftLeg  -13.8953 -9.2457 -0.874392
LeftFoot  0.314057 5.77803 -19.1577
LeftToes  9.54166e-015 -1.91609e-011 -2.3878e-011
581
root  -30.1191 37.0637 -15.535 150.479 64.4956 160.207
RightUpLeg  26.0116 2.4737 -3.90107
RightLeg  -78.3165 -20.9904 18.194
RightFoot  1.62425 4.47027 -10.9014
RightToes  -1.27222e-014 -6.36111e-015 6.36111e-015
Spine  -41.0585 -5.30861 -8.77848
Spine1  11.6399 -4.09008 26.312
HEad  18.1375 16.3327 -5.03348
LeftShoulder1  6.36111e-015 -1.33558e-015 6.49777e-015
LeftArm  34.415 -16.1321 -51.4219
LeftForeArm  -4.89916 -19.1614 -1.11191
LeftHand  -0.940601 0.275134 -12.4349
RightShoulder  -4.77083e-015 -6.36111e-015 -3.18055e-015
RightArm  38.576 -29.8341 6.44503
RightForeArm  -16.3418 -15.478 -6.2465
RightHand  0.998209 -0.627883 -6.5005
LeftUpLeg  25.0246 24.9699 9.53725
LeftLeg  -14.0782 -8.65595 -0.95897
LeftFoot  -0.76974 5.10872 -17.5448
LeftToes  9.54166e-015 -1.91609e-011 -2.3878e-011
